<svg width="19" height="22" viewBox="0 0 19 22" fill="none" xmlns="http://www.w3.org/2000/svg">
<path d="M7.41448 21.8053C4.14486 21.6078 1.88255 20.1431 0.61103 17.2961C-0.594435 14.5971 0.0330674 11.4209 2.11373 9.31445C4.72282 6.68135 7.34843 4.0647 9.99054 1.4645C11.9721 -0.493872 15.0271 -0.477415 16.9591 1.43159C18.8747 3.34059 18.9077 6.40158 16.9591 8.37641C14.7794 10.631 12.5336 12.8198 10.3208 15.025C9.54469 15.7985 8.75205 16.5555 7.99244 17.3619C7.08422 18.2999 7.05119 19.6165 7.82731 20.571C8.0585 20.8672 8.22363 21.2293 8.40527 21.5584C8.04198 21.6407 7.64566 21.7394 7.41448 21.8053Z" fill="#765484"/>
</svg>
